DataRate=2000.000000
DataType=double
version=3
OpenSimVersion=4.3-2021-08-27-4bc7ad9
endheader
time	f1_1	f1_2	f1_3	p1_1	p1_2	p1_3	m1_1	m1_2	m1_3	f2_1	f2_2	f2_3	p2_1	p2_2	p2_3	m2_1	m2_2	m2_3	f3_1	f3_2	f3_3	p3_1	p3_2	p3_3	m3_1	m3_2	m3_3	f4_1	f4_2	f4_3	p4_1	p4_2	p4_3	m4_1	m4_2	m4_3
1.0135	-0	0	0	-300	2252	0	0	0	0	-3.789277315139771	-57.53150939941406	393.0892944335938	-300	1351	0	-92677.9375	38779.37890625	1198.597534179688	5.981563859401506	58.78872325340588	416.5715637207031	-300	450.0000000000007	0	83449.67746517539	50840.86302270127	-6485.7470703125	-0	0	0	305	450.0000000000007	0	0	0	0
1.014	-0	0	0	-300	2252	0	0	0	0	-3.746841430664062	-57.44238662719727	391.4229736328125	-300	1351	0	-92608.15625	38848.54296875	1206.91259765625	5.668970875061138	58.81376291259357	416.50439453125	-300	450.0000000000007	0	83334.84934062924	50830.48020518197	-6392.25439453125	-0	0	0	305	450.0000000000007	0	0	0	0
1.0145	-0	0	0	-300	2252	0	0	0	0	-3.653324604034424	-57.35326385498047	390.4660034179688	-300	1351	0	-92567.328125	38829.609375	1182.012573242188	5.77892571032812	58.78442026603266	416.2054443359375	-300	450.0000000000007	0	83427.27902439516	50915.9059904722	-6369.7841796875	-0	0	0	305	450.0000000000007	0	0	0	0
1.015	-0	0	0	-300	2252	0	0	0	0	-3.708671808242798	-57.21743392944336	391.3403930664062	-300	1351	0	-92598.1875	38815.47265625	1194.614868164062	6.078799541791113	58.72550990926752	416.35498046875	-300	450.0000000000007	0	83527.88058532189	50951.89818236964	-6457.58154296875	-0	0	0	305	450.0000000000007	0	0	0	0
1.0155	-0	0	0	-300	2252	0	0	0	0	-3.836051940917969	-57.45949172973633	391.3064880371094	-300	1351	0	-92676.5546875	38811.6484375	1195.78955078125	5.935199079211704	58.69604899600812	417.285888671875	-300	450.0000000000007	0	83621.23995986446	50962.3630302005	-6454.66455078125	-0	0	0	305	450.0000000000007	0	0	0	0
1.016	-0	0	0	-300	2252	0	0	0	0	-3.695848703384399	-57.56972885131836	390.97021484375	-300	1351	0	-92612.2578125	38691.625	1194.337280273438	5.812650976427777	58.68349863664746	417.1866455078125	-300	450.0000000000007	0	83655.04464452442	51027.33568792816	-6410.7919921875	-0	0	0	305	450.0000000000007	0	0	0	0
1.0165	-0	0	0	-300	2252	0	0	0	0	-3.61514687538147	-57.30661010742188	390.97021484375	-300	1351	0	-92320.734375	38656.06640625	1058.1201171875	5.947798557551196	58.4647982336194	416.3715209960938	-300	450.0000000000007	0	83639.23995346825	51108.69115598731	-6443.40478515625	-0	0	0	305	450.0000000000007	0	0	0	0
1.017	-0	0	0	-300	2252	0	0	0	0	-3.704349279403687	-57.22171783447266	390.7852478027344	-300	1351	0	-92370.2421875	38695.0703125	1038.642822265625	6.078767610797285	58.33440425741065	416.17236328125	-300	450.0000000000007	0	83634.98995668394	51035.12474955153	-6485.931640625	-0	0	0	305	450.0000000000007	0	0	0	0
1.0175	-0	0	0	-300	2252	0	0	0	0	-3.466503381729126	-57.26840209960938	391.1719360351562	-300	1351	0	-92668.5234375	38860.2265625	1152.8642578125	6.028158965561678	58.56974055890942	416.387939453125	-300	450.0000000000007	0	83472.24777524189	50896.53489868785	-6485.83544921875	-0	0	0	305	450.0000000000007	0	0	0	0
1.018	-0	0	0	-300	2252	0	0	0	0	-3.211578369140625	-57.45090484619141	391.4915771484375	-300	1351	0	-92531.6171875	38833.85546875	1134.685668945312	6.036509811761056	58.63727977436233	417.6182250976562	-300	450.0000000000007	0	83391.8102738247	50928.95677017182	-6470.29296875	-0	0	0	305	450.0000000000007	0	0	0	0
1.0185	-0	0	0	-300	2252	0	0	0	0	-3.398452281951904	-57.43821334838867	391.5083312988281	-300	1351	0	-92055.6953125	38763.46875	1123.498779296875	6.121041599134579	58.56142070823311	418.2836303710938	-300	450.0000000000007	0	83517.02121310661	50888.19115064496	-6456.23974609375	-0	0	0	305	450.0000000000007	0	0	0	0
1.019	-0	0	0	-300	2252	0	0	0	0	-3.56842041015625	-57.31085205078125	392.6011657714844	-300	1351	0	-92285.8671875	38800.5703125	1212.658813476562	5.981755075337453	58.6918261281701	417.3699645996094	-300	450.0000000000007	0	83451.37277889521	50812.95677277537	-6471.63232421875	-0	0	0	305	450.0000000000007	0	0	0	0
1.0195	-0	0	0	-300	2252	0	0	0	0	-3.288205623626709	-57.217529296875	392.702880859375	-300	1351	0	-92694.859375	38784.08984375	1176.679321289062	5.994171919157563	58.59527232622262	416.9033203125	-300	450.0000000000007	0	83454.94309008916	50842.83567918144	-6454.759765625	-0	0	0	305	450.0000000000007	0	0	0	0
1.02	-0	0	0	-300	2252	0	0	0	0	-3.313323974609375	-57.41250610351562	391.6600036621094	-300	1351	0	-92568	38817.21484375	1092.914428710938	5.842563926334624	58.65379359034758	416.870849609375	-300	450.0000000000007	0	83552.56809250131	50787.65208969876	-6457.3935546875	-0	0	0	305	450.0000000000007	0	0	0	0
1.0205	-0	0	0	-300	2252	0	0	0	0	-3.381674766540527	-57.66737365722656	391.3233642578125	-300	1351	0	-92415.8515625	38757.125	1138.598754882812	5.774396709346224	58.82224298922336	417.2684631347656	-300	450.0000000000007	0	83527.6384044877	50799.40208860905	-6516.6259765625	-0	0	0	305	450.0000000000007	0	0	0	0
1.021	-0	0	0	-300	2252	0	0	0	0	-3.164900064468384	-57.29428100585938	392.0625610351562	-300	1351	0	-92400.4765625	38567.25	1119.571655273438	5.990016748220487	58.86843898253513	417.3866577148438	-300	450.0000000000007	0	83567.86496387224	50870.67552786741	-6420.943359375	-0	0	0	305	450.0000000000007	0	0	0	0
1.0215	-0	0	0	-300	2252	0	0	0	0	-3.402390003204346	-57.04758834838867	391.4427490234375	-300	1351	0	-92485.4453125	38589.8515625	1063.947021484375	5.939552601164481	58.72582652305388	417.0696105957031	-300	450.0000000000007	0	83588.2008999173	50903.96068500632	-6354.2841796875	-0	0	0	305	450.0000000000007	0	0	0	0
1.022	-0	0	0	-300	2252	0	0	0	0	-3.470981597900391	-57.2724494934082	391.3722534179688	-300	1351	0	-92354.3828125	38924.453125	1155.516967773438	5.854909234486886	58.78816630206885	417.6012878417969	-300	450.0000000000007	0	83526.00558733483	50905.84740103768	-6381.15478515625	-0	0	0	305	450.0000000000007	0	0	0	0
1.0225	-0	0	0	-300	2252	0	0	0	0	-3.487406253814697	-57.53981781005859	391.0899963378906	-300	1351	0	-92209.15625	39027.109375	1147.219970703125	5.947655495166909	58.72186686764636	418.4820556640625	-300	450.0000000000007	0	83560.48996112389	50933.55052754504	-6429.10986328125	-0	0	0	305	450.0000000000007	0	0	0	0
1.023	-0	0	0	-300	2252	0	0	0	0	-3.564338207244873	-57.48095703125	390.6493225097656	-300	1351	0	-92417.15625	39042.76953125	1078.843383789062	5.939600766892079	58.60744502281185	418.2519836425781	-300	450.0000000000007	0	83617.02120734575	51019.98412376609	-6501.26708984375	-0	0	0	305	450.0000000000007	0	0	0	0
1.0235	-0	0	0	-300	2252	0	0	0	0	-3.479209899902344	-57.31085205078125	391.5080261230469	-300	1351	0	-92565.21875	39118.66796875	1092.954833984375	5.901266401791316	58.50315501259128	417.2204284667969	-300	450.0000000000007	0	83748.52121001403	50958.94116076415	-6515.42626953125	-0	0	0	305	450.0000000000007	0	0	0	0
1.024	-0	0	0	-300	2252	0	0	0	0	-3.385949373245239	-57.54379272460938	391.491943359375	-300	1351	0	-92440.921875	39023.58203125	1169.212158203125	5.89727098237332	58.5230448439596	416.8870239257812	-300	450.0000000000007	0	83737.47433598558	50936.71459778127	-6484.4208984375	-0	0	0	305	450.0000000000007	0	0	0	0
1.0245	-0	0	0	-300	2252	0	0	0	0	-3.114300012588501	-57.38385772705078	391.3233642578125	-300	1351	0	-92511.171875	38828.5625	1208.632202148438	5.947591600477415	58.68778636227247	416.157470703125	-300	450.0000000000007	0	83757.92746132726	50928.89819242531	-6471.58056640625	-0	0	0	305	450.0000000000007	0	0	0	0
1.025	-0	0	0	-300	2252	0	0	0	0	-3.223632097244263	-57.13660049438477	391.5079345703125	-300	1351	0	-92551.984375	38783.9296875	1196.165405273438	6.124996959682297	58.64559963296656	416.7669677734375	-300	450.0000000000007	0	83744.22433919171	50863.36694182632	-6454.89892578125	-0	0	0	305	450.0000000000007	0	0	0	0
1.0255	-0	0	0	-300	2252	0	0	0	0	-3.385947227478027	-57.40807723999023	392.2304077148438	-300	1351	0	-92647.703125	38849.05859375	1240.435668945312	6.209752374315576	58.7840426298354	418.2993774414062	-300	450.0000000000007	0	83661.30246175668	50919.0739694517	-6442.08154296875	-0	0	0	305	450.0000000000007	0	0	0	0
1.026	-0	0	0	-300	2252	0	0	0	0	-3.160849809646606	-57.57823944091797	392.736083984375	-300	1351	0	-92642.421875	38743.125	1176.528930664062	6.117022333555466	58.67975643193438	417.5379028320312	-300	450.0000000000007	0	83617.51340058236	50888.74584253761	-6440.703125	-0	0	0	305	450.0000000000007	0	0	0	0
1.0265	-0	0	0	-300	2252	0	0	0	0	-3.173072338104248	-57.25206756591797	392.9207458496094	-300	1351	0	-92462.5078125	38567.11328125	1169.5166015625	6.125045121904233	58.60741832803702	416.5379028320312	-300	450.0000000000007	0	83722.2634082182	50714.05834711638	-6426.56640625	-0	0	0	305	450.0000000000007	0	0	0	0
1.027	-0	0	0	-300	2252	0	0	0	0	-3.627201318740845	-57.09409332275391	391.7970275878906	-300	1351	0	-92488.21875	38694.953125	1162.878662109375	6.117053802440118	58.73392513310763	417.0851440429688	-300	450.0000000000007	0	83714.77902754732	50843.79272178923	-6457.52685546875	-0	0	0	305	450.0000000000007	0	0	0	0
1.0275	-0	0	0	-300	2252	0	0	0	0	-3.785395622253418	-57.31488037109375	391.3553161621094	-300	1351	0	-92321.78125	38965.44921875	1092.873901367188	5.985989393512459	58.59550883709542	417.4029541015625	-300	450.0000000000007	0	83480.74776607769	51106.1872428094	-6408.318359375	-0	0	0	305	450.0000000000007	0	0	0	0
1.028	-0	0	0	-300	2252	0	0	0	0	-3.611016511917114	-57.35340881347656	391.2915344238281	-300	1351	0	-92236.578125	38855.046875	1138.724975585938	5.943620035368399	58.42282893412035	416.8714904785156	-300	450.0000000000007	0	83476.72433002495	51073.07786763352	-6430.45263671875	-0	0	0	305	450.0000000000007	0	0	0	0
1.0285	-0	0	0	-300	2252	0	0	0	0	-3.941270589828491	-57.31085205078125	391.5395812988281	-300	1351	0	-92471.671875	38736.28125	1119.45556640625	5.943620035196651	58.42675807230394	417.0848693847656	-300	450.0000000000007	0	83574.66184031063	50837.76927816451	-6484.49462890625	-0	0	0	305	450.0000000000007	0	0	0	0
1.029	-0	0	0	-300	2252	0	0	0	0	-4.142309665679932	-57.21773910522461	391.4605102539062	-300	1351	0	-92524.5703125	38683.9921875	1063.620727539062	6.128888908257466	58.56118419734566	417.2207336425781	-300	450.0000000000007	0	83579.26340667925	50749.26537211565	-6518.19775390625	-0	0	0	305	450.0000000000007	0	0	0	0
1.0295	-0	0	0	-300	2252	0	0	0	0	-3.781521797180176	-57.03949356079102	391.3547973632812	-300	1351	0	-92520.1015625	38701.57421875	1109.671508789062	6.066916759270937	58.73781230742974	417.433837890625	-300	450.0000000000007	0	83385.30246129191	50929.70676988735	-6543.841796875	-0	0	0	305	450.0000000000007	0	0	0	0
1.03	-0	0	0	-300	2252	0	0	0	0	-3.615002632141113	-57.00086975097656	391.660888671875	-300	1351	0	-92617.5703125	38804.0703125	1121.117919921875	5.947511962794709	58.82224299679047	417.9345092773438	-300	450.0000000000007	0	83473.77121012895	50956.31224250444	-6437.9638671875	-0	0	0	305	450.0000000000007	0	0	0	0
1.0305	-0	0	0	-300	2252	0	0	0	0	-3.331611633300781	-57.18305587768555	391.3233642578125	-300	1351	0	-92554.7578125	38787.74609375	1108.362426757812	6.124917322170171	58.77615383218183	418.11669921875	-300	450.0000000000007	0	83657.81026874494	51045.16771929905	-6413.63623046875	-0	0	0	305	450.0000000000007	0	0	0	0
1.031	-0	0	0	-300	2252	0	0	0	0	-3.405686616897583	-57.124755859375	391.3233642578125	-300	1351	0	-92454.6484375	38914.9921875	1122.366577148438	6.024610809062176	58.82608821500432	418.1014709472656	-300	450.0000000000007	0	83594.56026253384	51187.2614665343	-6440.6259765625	-0	0	0	305	450.0000000000007	0	0	0	0
1.0315	-0	0	0	-300	2252	0	0	0	0	-3.746841430664062	-57.0008430480957	390.4017639160156	-300	1351	0	-92623.1328125	38956.11328125	1122.380493164062	6.086296367503215	58.91056850334521	418.6630859375	-300	450.0000000000007	0	83533.6149580378	51004.15208887029	-6441.93701171875	-0	0	0	305	450.0000000000007	0	0	0	0
1.032	-0	0	0	-300	2252	0	0	0	0	-3.560641050338745	-57.0899658203125	389.7417602539062	-300	1351	0	-92683.8125	38922.74609375	1122.355346679688	5.835768983592621	58.956634776574	418.4205627441406	-300	450.0000000000007	0	83711.01340366351	50818.25756537462	-6471.408203125	-0	0	0	305	450.0000000000007	0	0	0	0
